<?xml version="1.0" encoding="utf-8"?>
<!-- Generator: Adobe Illustrator 17.0.0, SVG Export Plug-In . SVG Version: 6.00 Build 0)  -->
<!DOCTYPE svg PUBLIC "-//W3C//DTD SVG 1.1//EN" "http://www.w3.org/Graphics/SVG/1.1/DTD/svg11.dtd">
<svg version="1.1" id="Layer_2" xmlns="http://www.w3.org/2000/svg" xmlns:xlink="http://www.w3.org/1999/xlink" x="0px" y="0px"
	 width="60.123px" height="60.733px" viewBox="0 0 60.123 60.733" enable-background="new 0 0 60.123 60.733" xml:space="preserve">
<g>
	<path fill="none" stroke="#808080" stroke-width="2" stroke-linecap="round" stroke-linejoin="round" stroke-miterlimit="10" d="
		M51.456,1.802"/>
	<path fill="none" stroke="#76828E" stroke-width="3" stroke-linecap="round" stroke-linejoin="round" stroke-miterlimit="10" d="
		M51.456,34.214c4.142-4.15,6.702-9.879,6.702-16.206c0-6.327-2.561-12.055-6.702-16.206"/>
	<path fill="none" stroke="#808080" stroke-width="2" stroke-linecap="round" stroke-linejoin="round" stroke-miterlimit="10" d="
		M51.456,34.214"/>
	<path fill="none" stroke="#808080" stroke-width="2" stroke-linecap="round" stroke-linejoin="round" stroke-miterlimit="10" d="
		M47.767,5.61"/>
	<path fill="none" stroke="#76828E" stroke-width="2" stroke-linecap="round" stroke-linejoin="round" stroke-miterlimit="10" d="
		M46.041,30.405c3.147-3.187,5.093-7.564,5.093-12.398c0.001-4.833-1.945-9.21-5.093-12.397"/>
	<path fill="none" stroke="#808080" stroke-width="2" stroke-linecap="round" stroke-linejoin="round" stroke-miterlimit="10" d="
		M47.767,30.406"/>
	<path fill="none" stroke="#808080" stroke-width="2" stroke-linecap="round" stroke-linejoin="round" stroke-miterlimit="10" d="
		M42.716,10.827"/>
	<path fill="none" stroke="#76828E" stroke-width="2" stroke-linecap="round" stroke-linejoin="round" stroke-miterlimit="10" d="
		M42.716,25.189c1.788-1.867,2.892-4.393,2.892-7.181c0-2.788-1.104-5.315-2.892-7.181"/>
	<path fill="none" stroke="#808080" stroke-width="2" stroke-linecap="round" stroke-linejoin="round" stroke-miterlimit="10" d="
		M42.716,25.189"/>
	<path fill="none" stroke="#808080" stroke-width="2" stroke-linecap="round" stroke-linejoin="round" stroke-miterlimit="10" d="
		M8.668,1.802"/>
	<path fill="none" stroke="#76828E" stroke-width="3" stroke-linecap="round" stroke-linejoin="round" stroke-miterlimit="10" d="
		M8.668,34.214c-4.142-4.15-6.703-9.879-6.703-16.206c0-6.327,2.562-12.055,6.703-16.206"/>
	<path fill="none" stroke="#808080" stroke-width="2" stroke-linecap="round" stroke-linejoin="round" stroke-miterlimit="10" d="
		M8.668,34.214"/>
	<path fill="none" stroke="#808080" stroke-width="2" stroke-linecap="round" stroke-linejoin="round" stroke-miterlimit="10" d="
		M12.355,5.61"/>
	<path fill="none" stroke="#76828E" stroke-width="2" stroke-linecap="round" stroke-linejoin="round" stroke-miterlimit="10" d="
		M14.083,30.405c-3.148-3.187-5.094-7.564-5.094-12.398c0-4.833,1.945-9.21,5.094-12.397"/>
	<path fill="none" stroke="#808080" stroke-width="2" stroke-linecap="round" stroke-linejoin="round" stroke-miterlimit="10" d="
		M12.355,30.406"/>
	<path fill="none" stroke="#808080" stroke-width="2" stroke-linecap="round" stroke-linejoin="round" stroke-miterlimit="10" d="
		M17.407,10.827"/>
	<path fill="none" stroke="#76828E" stroke-width="2" stroke-linecap="round" stroke-linejoin="round" stroke-miterlimit="10" d="
		M17.407,25.189c-1.787-1.867-2.891-4.393-2.891-7.181c-0.001-2.788,1.104-5.315,2.891-7.181"/>
	<path fill="none" stroke="#808080" stroke-width="2" stroke-linecap="round" stroke-linejoin="round" stroke-miterlimit="10" d="
		M17.407,25.189"/>
	
		<circle fill="none" stroke="#76828E" stroke-width="3" stroke-linecap="round" stroke-linejoin="round" stroke-miterlimit="10" cx="30.208" cy="18.274" r="5.715"/>
	<path fill="none" stroke="#76828E" stroke-width="2" stroke-linecap="round" stroke-linejoin="round" stroke-miterlimit="10" d="
		M27.923,24.262l-7.993,34.67L27.923,24.262z"/>
	<path fill="none" stroke="#76828E" stroke-width="2" stroke-linecap="round" stroke-linejoin="round" stroke-miterlimit="10" d="
		M32.493,24.262l7.992,34.67L32.493,24.262z"/>
	
		<line fill="none" stroke="#76828E" stroke-width="2" stroke-linecap="round" stroke-linejoin="round" stroke-miterlimit="10" x1="27.002" y1="30.919" x2="35.93" y2="40.845"/>
	
		<line fill="none" stroke="#76828E" stroke-width="2" stroke-linecap="round" stroke-linejoin="round" stroke-miterlimit="10" x1="25.182" y1="40.853" x2="39.179" y2="54.848"/>
	
		<line fill="none" stroke="#76828E" stroke-width="2" stroke-linecap="round" stroke-linejoin="round" stroke-miterlimit="10" x1="35.23" y1="40.853" x2="21.234" y2="54.848"/>
	
		<line fill="none" stroke="#76828E" stroke-width="2" stroke-linecap="round" stroke-linejoin="round" stroke-miterlimit="10" x1="33.387" y1="30.919" x2="24.459" y2="40.845"/>
	<path fill="none" stroke="#76828E" stroke-width="2" stroke-linecap="round" stroke-linejoin="round" stroke-miterlimit="10" d="
		M30.208,18.274"/>
</g>
</svg>
