<?xml version="1.0" encoding="utf-8"?>
<!-- Generator: Adobe Illustrator 17.0.0, SVG Export Plug-In . SVG Version: 6.00 Build 0)  -->
<!DOCTYPE svg PUBLIC "-//W3C//DTD SVG 1.1//EN" "http://www.w3.org/Graphics/SVG/1.1/DTD/svg11.dtd">
<svg version="1.1" id="Layer_1" xmlns="http://www.w3.org/2000/svg" xmlns:xlink="http://www.w3.org/1999/xlink" x="0px" y="0px"
	 width="55.667px" height="62.667px" viewBox="0 0 55.667 62.667" enable-background="new 0 0 55.667 62.667" xml:space="preserve">
<g>
	<path fill="none" stroke="#76828E" stroke-width="4" stroke-linejoin="round" stroke-miterlimit="10" d="M45.539,37.611
		c-1.117-7.376-1.383-16.736-6.07-22.291c-1.9-2.251-3.283-3.661-5.471-4.556c0.027-0.237,0.045-0.477,0.045-0.722
		c0-3.429-2.78-6.209-6.209-6.209c-3.43,0-6.209,2.78-6.209,6.209c0,0.244,0.018,0.483,0.045,0.721
		c-2.185,0.895-3.568,2.306-5.47,4.557c-4.689,5.556-4.955,14.916-6.072,22.293C9.305,43.052,6.522,48.224,4.442,51.59h46.782
		C49.144,48.224,46.361,43.051,45.539,37.611z"/>
	<path fill="none" stroke="#76828E" stroke-width="4" stroke-linejoin="round" stroke-miterlimit="10" d="M27.833,51.589"/>
	<path fill="none" stroke="#76828E" stroke-width="4" stroke-linejoin="round" stroke-miterlimit="10" d="M27.833,51.589"/>
	<path fill="none" stroke="#76828E" stroke-width="4" stroke-linejoin="round" stroke-miterlimit="10" d="M35.078,51.589
		c0,4.001-3.243,7.244-7.244,7.244s-7.245-3.243-7.245-7.244"/>
</g>
</svg>
