<?xml version="1.0" encoding="utf-8"?>
<!-- Generator: Adobe Illustrator 17.0.0, SVG Export Plug-In . SVG Version: 6.00 Build 0)  -->
<!DOCTYPE svg PUBLIC "-//W3C//DTD SVG 1.1//EN" "http://www.w3.org/Graphics/SVG/1.1/DTD/svg11.dtd">
<svg version="1.1" id="Layer_1" xmlns="http://www.w3.org/2000/svg" xmlns:xlink="http://www.w3.org/1999/xlink" x="0px" y="0px"
	 width="66px" height="65px" viewBox="0 0 66 65" enable-background="new 0 0 66 65" xml:space="preserve">
<path fill="none" stroke="#76828E" stroke-width="3" stroke-miterlimit="10" d="M54.92,54.92c12.106-12.106,12.106-31.734,0-43.841
	s-31.734-12.106-43.841,0s-12.106,31.734,0,43.841"/>
<g>
	<defs>
		<path id="SVGID_1_" d="M33.5,48.6c2.485,0,4.5-2.015,4.5-4.5c0-2.485-3.25-17.1-4.5-17.1S29,41.615,29,44.1
			C29,46.585,31.015,48.6,33.5,48.6z"/>
	</defs>
	<clipPath id="SVGID_2_">
		<use xlink:href="#SVGID_1_"  overflow="visible"/>
	</clipPath>
	<rect x="24" y="22" clip-path="url(#SVGID_2_)" fill="#76828E" width="19" height="31.6"/>
</g>
<path fill="none" stroke="#76828E" stroke-width="2" stroke-linecap="round" stroke-miterlimit="10" d="M61.23,45.865l-7.25-3.381
	 M63.691,28.838l-7.922,1.113 M56.546,13.188l-6.038,5.248 M42.068,3.894l-2.205,7.69 M24.932,3.894l2.205,7.69 M10.454,13.188
	l6.038,5.248 M3.309,28.838l7.922,1.113 M5.77,45.865l7.25-3.381"/>
<g>
	<defs>
		<path id="SVGID_3_" d="M25,63c0,1.662,1.337,3,2.992,3h11.016C40.66,66,42,64.656,42,63c0-1.662-1.337-3-2.992-3H27.992
			C26.34,60,25,61.344,25,63z M27,63c0-0.553,0.446-1,0.992-1h11.016C39.558,62,40,62.442,40,63c0,0.553-0.446,1-0.992,1H27.992
			C27.442,64,27,63.558,27,63z M5,40h57v46H5V40z"/>
	</defs>
	<clipPath id="SVGID_4_">
		<use xlink:href="#SVGID_3_"  overflow="visible"/>
	</clipPath>
	<g clip-path="url(#SVGID_4_)">
		<defs>
			<path id="SVGID_5_" d="M26,63c0-1.105,0.893-2,1.992-2h11.016c1.1,0,1.992,0.888,1.992,2c0,1.105-0.893,2-1.992,2H27.992
				C26.892,65,26,64.112,26,63z"/>
		</defs>
		<clipPath id="SVGID_6_">
			<use xlink:href="#SVGID_5_"  overflow="visible"/>
		</clipPath>
		<path clip-path="url(#SVGID_6_)" fill="#76828E" d="M26,63c0-1.105,0.893-2,1.992-2h11.016c1.1,0,1.992,0.888,1.992,2
			c0,1.105-0.893,2-1.992,2H27.992C26.892,65,26,64.112,26,63z"/>
	</g>
</g>
<g>
	<defs>
		<path id="SVGID_7_" d="M26,63c0-1.105,0.893-2,1.992-2h11.016c1.1,0,1.992,0.888,1.992,2c0,1.105-0.893,2-1.992,2H27.992
			C26.892,65,26,64.112,26,63z"/>
	</defs>
	<clipPath id="SVGID_8_">
		<use xlink:href="#SVGID_7_"  overflow="visible"/>
	</clipPath>
	
		<path clip-path="url(#SVGID_8_)" fill="none" stroke="#76828E" stroke-width="4" stroke-linecap="round" stroke-linejoin="bevel" stroke-miterlimit="10" d="
		M26,63c0-1.105,0.893-2,1.992-2h11.016c1.1,0,1.992,0.888,1.992,2c0,1.105-0.893,2-1.992,2H27.992C26.892,65,26,64.112,26,63z"/>
</g>
</svg>
