<?xml version="1.0" encoding="utf-8"?>
<!-- Generator: Adobe Illustrator 17.0.0, SVG Export Plug-In . SVG Version: 6.00 Build 0)  -->
<!DOCTYPE svg PUBLIC "-//W3C//DTD SVG 1.1//EN" "http://www.w3.org/Graphics/SVG/1.1/DTD/svg11.dtd">
<svg version="1.1" id="Layer_1" xmlns="http://www.w3.org/2000/svg" xmlns:xlink="http://www.w3.org/1999/xlink" x="0px" y="0px"
	 width="56.693px" height="56.693px" viewBox="0 0 56.693 56.693" enable-background="new 0 0 56.693 56.693" xml:space="preserve">
<g id="AuthError">
	<g>
		<g>
			<g>
				
					<path fill="none" stroke="#50BB7D" stroke-width="3" stroke-linecap="round" stroke-linejoin="round" stroke-miterlimit="10" d="
					M15.053,24.069"/>
				
					<path fill="none" stroke="#50BB7D" stroke-width="3" stroke-linecap="round" stroke-linejoin="round" stroke-miterlimit="10" d="
					M41.64,22.994c-3.405-3.959-8.104-6.406-13.294-6.406s-9.889,2.447-13.293,6.406"/>
				
					<path fill="none" stroke="#50BB7D" stroke-width="2" stroke-linecap="round" stroke-linejoin="round" stroke-miterlimit="10" d="
					M41.64,24.069"/>
				
					<path fill="none" stroke="#50BB7D" stroke-width="3" stroke-linecap="round" stroke-linejoin="round" stroke-miterlimit="10" d="
					M18.177,27.665"/>
				
					<path fill="none" stroke="#50BB7D" stroke-width="2" stroke-linecap="round" stroke-linejoin="round" stroke-miterlimit="10" d="
					M38.515,28.456c-2.614-3.009-6.205-4.867-10.17-4.867c-3.964,0-7.555,1.858-10.169,4.867"/>
				<path fill="none" stroke="#50BB7D" stroke-linecap="round" stroke-linejoin="round" stroke-miterlimit="10" d="M38.515,27.665"
					/>
				
					<path fill="none" stroke="#50BB7D" stroke-width="3" stroke-linecap="round" stroke-linejoin="round" stroke-miterlimit="10" d="
					M22.455,32.589"/>
				
					<path fill="none" stroke="#50BB7D" stroke-width="2" stroke-linecap="round" stroke-linejoin="round" stroke-miterlimit="10" d="
					M34.237,32.589c-1.531-1.708-3.603-2.764-5.891-2.764c-2.287,0-4.359,1.056-5.891,2.764"/>
				<path fill="none" stroke="#50BB7D" stroke-linecap="round" stroke-linejoin="round" stroke-miterlimit="10" d="M34.237,32.589"
					/>
			</g>
			<circle fill="#50BB7D" cx="28.063" cy="37.237" r="2.658"/>
		</g>
		<g>
			<g>
				<g>
					
						<path fill="none" stroke="#8EB6D5" stroke-width="3" stroke-linecap="round" stroke-linejoin="round" stroke-miterlimit="10" d="
						M28.346,6.993c-11.793,0-21.353,9.56-21.353,21.353c0,11.794,9.561,21.353,21.353,21.353c11.793,0,21.354-9.56,21.354-21.353
						S40.139,6.993,28.346,6.993"/>
				</g>
				<g>
					
						<path fill="none" stroke="#DEDFE3" stroke-width="3" stroke-linecap="round" stroke-linejoin="round" stroke-miterlimit="10" d="
						M28.346,6.993c-11.793,0-21.353,9.56-21.353,21.353c0,11.794,9.561,21.353,21.353,21.353c11.793,0,21.354-9.56,21.354-21.353
						S40.139,6.993,28.346,6.993"/>
				</g>
			</g>
			
				<line fill="none" stroke="#DEDFE3" stroke-width="4" stroke-linecap="round" stroke-linejoin="round" stroke-miterlimit="10" x1="42.988" y1="13.705" x2="13.705" y2="42.989"/>
		</g>
	</g>
</g>
</svg>
