<?xml version="1.0" encoding="utf-8"?>
<!-- Generator: Adobe Illustrator 17.0.0, SVG Export Plug-In . SVG Version: 6.00 Build 0)  -->
<!DOCTYPE svg PUBLIC "-//W3C//DTD SVG 1.1//EN" "http://www.w3.org/Graphics/SVG/1.1/DTD/svg11.dtd">
<svg version="1.1" id="Layer_1" xmlns="http://www.w3.org/2000/svg" xmlns:xlink="http://www.w3.org/1999/xlink" x="0px" y="0px"
	 width="61.9px" height="48.637px" viewBox="0 0 61.9 48.637" enable-background="new 0 0 61.9 48.637" xml:space="preserve">
<g>
	<g>
		<g>
			<path fill="none" stroke="#50BA7D" stroke-width="3" stroke-linecap="round" stroke-linejoin="round" stroke-miterlimit="10" d="
				M5.162,23.7"/>
			<path fill="none" stroke="#50BA7D" stroke-width="4" stroke-linecap="round" stroke-linejoin="round" stroke-miterlimit="10" d="
				M40.374,23.921c-4.509-5.242-10.732-8.484-17.606-8.484c-6.874,0-13.097,3.242-17.606,8.484"/>
			<path fill="none" stroke="#50BA7D" stroke-width="2" stroke-linecap="round" stroke-linejoin="round" stroke-miterlimit="10" d="
				M40.374,23.698"/>
			<path fill="none" stroke="#50BA7D" stroke-width="3" stroke-linecap="round" stroke-linejoin="round" stroke-miterlimit="10" d="
				M9.299,28.462"/>
			<path fill="none" stroke="#50BA7D" stroke-width="3" stroke-linecap="round" stroke-linejoin="round" stroke-miterlimit="10" d="
				M36.237,29.509c-3.462-3.984-8.218-6.445-13.468-6.445c-5.251,0-10.006,2.461-13.469,6.445"/>
			<path fill="none" stroke="#50BA7D" stroke-linecap="round" stroke-linejoin="round" stroke-miterlimit="10" d="M36.237,28.462"/>
			<path fill="none" stroke="#50BA7D" stroke-width="3" stroke-linecap="round" stroke-linejoin="round" stroke-miterlimit="10" d="
				M14.966,34.983"/>
			<path fill="none" stroke="#50BA7D" stroke-width="2" stroke-linecap="round" stroke-linejoin="round" stroke-miterlimit="10" d="
				M30.569,34.983c-2.027-2.262-4.772-3.66-7.801-3.66c-3.03,0-5.774,1.398-7.802,3.66"/>
			<path fill="none" stroke="#50BA7D" stroke-linecap="round" stroke-linejoin="round" stroke-miterlimit="10" d="M30.569,34.983"/>
		</g>
		<circle fill="#50BA7D" cx="22.393" cy="41.137" r="3.521"/>
	</g>
	
		<circle fill="#FFFFFF" stroke="#EA5062" stroke-width="2" stroke-linecap="round" stroke-linejoin="round" stroke-miterlimit="10" cx="42.371" cy="18.348" r="14.368"/>
	<g>
		
			<circle fill="none" stroke="#EA5062" stroke-width="3" stroke-linecap="round" stroke-linejoin="round" stroke-miterlimit="10" cx="36.237" cy="18.078" r="3.172"/>
		
			<line fill="none" stroke="#EA5062" stroke-width="3" stroke-linecap="round" stroke-linejoin="round" stroke-miterlimit="10" x1="39.408" y1="18.078" x2="50.088" y2="18.078"/>
		
			<line fill="none" stroke="#EA5062" stroke-width="3" stroke-linecap="round" stroke-linejoin="round" stroke-miterlimit="10" x1="50.088" y1="18.078" x2="50.088" y2="21.249"/>
		
			<line fill="none" stroke="#EA5062" stroke-width="3" stroke-linecap="round" stroke-linejoin="round" stroke-miterlimit="10" x1="45.088" y1="18.078" x2="45.088" y2="21.249"/>
	</g>
</g>
</svg>
