<?xml version="1.0" encoding="utf-8"?>
<!-- Generator: Adobe Illustrator 17.0.0, SVG Export Plug-In . SVG Version: 6.00 Build 0)  -->
<!DOCTYPE svg PUBLIC "-//W3C//DTD SVG 1.1//EN" "http://www.w3.org/Graphics/SVG/1.1/DTD/svg11.dtd">
<svg version="1.1" id="Layer_1" xmlns="http://www.w3.org/2000/svg" xmlns:xlink="http://www.w3.org/1999/xlink" x="0px" y="0px"
	 width="43.001px" height="62.972px" viewBox="0 0 43.001 62.972" enable-background="new 0 0 43.001 62.972" xml:space="preserve">
<path fill="none" stroke="#FFFFFF" stroke-width="4" stroke-linejoin="round" stroke-miterlimit="10" d="M35.932,6.626
	l-5.598,12.638c-0.634,1.432-2.31,2.078-3.74,1.443l-5.178-2.294c-1.432-0.634-2.078-2.309-1.444-3.74l5.599-12.637
	c-6.73-0.448-13.329,3.259-16.22,9.784c-2.891,6.525-1.203,13.903,3.651,18.586L2.243,54.694c-0.634,1.432,0.013,3.107,1.443,3.74
	l5.178,2.295c1.432,0.633,3.106-0.014,3.74-1.444l10.759-24.286c6.731,0.449,13.33-3.259,16.221-9.784
	C42.475,18.688,40.787,11.31,35.932,6.626z"/>
</svg>
