<?xml version="1.0" encoding="utf-8"?>
<!-- Generator: Adobe Illustrator 17.0.0, SVG Export Plug-In . SVG Version: 6.00 Build 0)  -->
<!DOCTYPE svg PUBLIC "-//W3C//DTD SVG 1.1//EN" "http://www.w3.org/Graphics/SVG/1.1/DTD/svg11.dtd">
<svg version="1.1" id="Layer_1" xmlns="http://www.w3.org/2000/svg" xmlns:xlink="http://www.w3.org/1999/xlink" x="0px" y="0px"
	 width="91.881px" height="91.881px" viewBox="0 0 91.881 91.881" enable-background="new 0 0 91.881 91.881" xml:space="preserve">
<circle fill="#8DB5D4" cx="45.94" cy="45.941" r="43.381"/>
<g>
	<g>
		<g>
			<path fill="none" stroke="#FFFFFF" stroke-miterlimit="10" d="M45.94,19.043"/>
			<path fill="none" stroke="#FFFFFF" stroke-miterlimit="10" d="M45.94,19.043c-14.854,0-26.897,12.042-26.897,26.897
				c0,14.855,12.042,26.897,26.897,26.897c14.855,0,26.897-12.042,26.897-26.897c0-9.418-4.841-17.706-12.17-22.511"/>
		</g>
		<g>
			<path fill="none" stroke="#FFFFFF" stroke-width="3" stroke-linecap="round" stroke-linejoin="round" stroke-miterlimit="10" d="
				M45.94,19.043"/>
			<path fill="none" stroke="#FFFFFF" stroke-width="3" stroke-linecap="round" stroke-linejoin="round" stroke-miterlimit="10" d="
				M45.94,19.043c-14.854,0-26.897,12.042-26.897,26.897c0,14.855,12.042,26.897,26.897,26.897
				c14.855,0,26.897-12.042,26.897-26.897c0-9.418-4.841-17.706-12.17-22.511"/>
		</g>
		<g>
			<path fill="none" stroke="#FFFFFF" stroke-width="2" stroke-linecap="round" stroke-linejoin="round" stroke-miterlimit="10" d="
				M45.94,19.043"/>
			<path fill="none" stroke="#FFFFFF" stroke-width="5" stroke-linecap="round" stroke-linejoin="round" stroke-miterlimit="10" d="
				M45.94,19.043c-14.854,0-26.897,12.042-26.897,26.897c0,14.855,12.042,26.897,26.897,26.897
				c14.855,0,26.897-12.042,26.897-26.897c0-9.418-4.841-17.706-12.17-22.511"/>
		</g>
	</g>
	
		<polygon fill="#FFFFFF" stroke="#FFFFFF" stroke-width="2" stroke-linecap="round" stroke-linejoin="round" stroke-miterlimit="10" points="
		72.616,20.763 57.362,21.199 57.8,36.454 	"/>
</g>
</svg>
