<?xml version="1.0" encoding="utf-8"?>
<!-- Generator: Adobe Illustrator 17.0.0, SVG Export Plug-In . SVG Version: 6.00 Build 0)  -->
<!DOCTYPE svg PUBLIC "-//W3C//DTD SVG 1.1//EN" "http://www.w3.org/Graphics/SVG/1.1/DTD/svg11.dtd">
<svg version="1.1" id="Layer_1" xmlns="http://www.w3.org/2000/svg" xmlns:xlink="http://www.w3.org/1999/xlink" x="0px" y="0px"
	 width="56.693px" height="56.693px" viewBox="0 0 56.693 56.693" enable-background="new 0 0 56.693 56.693" xml:space="preserve">
<g id="SyncUnReg">
	<g>
		<g>
			<g>
				
					<path fill="none" stroke="#50BB7D" stroke-width="3" stroke-linecap="round" stroke-linejoin="round" stroke-miterlimit="10" d="
					M2.558,27.728"/>
				
					<path fill="none" stroke="#50BB7D" stroke-width="4" stroke-linecap="round" stroke-linejoin="round" stroke-miterlimit="10" d="
					M37.77,27.948c-4.509-5.242-10.732-8.484-17.606-8.484c-6.873,0-13.097,3.242-17.606,8.484"/>
				
					<path fill="none" stroke="#50BB7D" stroke-width="2" stroke-linecap="round" stroke-linejoin="round" stroke-miterlimit="10" d="
					M37.77,27.726"/>
				
					<path fill="none" stroke="#50BB7D" stroke-width="3" stroke-linecap="round" stroke-linejoin="round" stroke-miterlimit="10" d="
					M6.695,32.49"/>
				
					<path fill="none" stroke="#50BB7D" stroke-width="3" stroke-linecap="round" stroke-linejoin="round" stroke-miterlimit="10" d="
					M33.633,33.536c-3.462-3.984-8.218-6.445-13.468-6.445c-5.251,0-10.006,2.461-13.469,6.445"/>
				<path fill="none" stroke="#50BB7D" stroke-linecap="round" stroke-linejoin="round" stroke-miterlimit="10" d="M33.633,32.49"/>
				
					<path fill="none" stroke="#50BB7D" stroke-width="3" stroke-linecap="round" stroke-linejoin="round" stroke-miterlimit="10" d="
					M12.362,39.011"/>
				
					<path fill="none" stroke="#50BB7D" stroke-width="2" stroke-linecap="round" stroke-linejoin="round" stroke-miterlimit="10" d="
					M27.965,39.011c-2.027-2.262-4.772-3.66-7.801-3.66c-3.03,0-5.774,1.398-7.802,3.66"/>
				<path fill="none" stroke="#50BB7D" stroke-linecap="round" stroke-linejoin="round" stroke-miterlimit="10" d="M27.965,39.011"
					/>
			</g>
			<circle fill="#50BB7D" cx="19.789" cy="45.165" r="3.521"/>
		</g>
		
			<circle fill="#FFFFFF" stroke="#EB5162" stroke-width="2" stroke-linecap="round" stroke-linejoin="round" stroke-miterlimit="10" cx="39.767" cy="22.375" r="14.368"/>
		
			<line fill="none" stroke="#EB5162" stroke-width="3" stroke-linecap="round" stroke-linejoin="round" stroke-miterlimit="10" x1="34.555" y1="17.162" x2="44.98" y2="27.588"/>
		
			<line fill="none" stroke="#EB5162" stroke-width="3" stroke-linecap="round" stroke-linejoin="round" stroke-miterlimit="10" x1="44.98" y1="17.162" x2="34.555" y2="27.588"/>
	</g>
</g>
</svg>
