<?xml version="1.0" encoding="utf-8"?>
<!-- Generator: Adobe Illustrator 17.0.0, SVG Export Plug-In . SVG Version: 6.00 Build 0)  -->
<!DOCTYPE svg PUBLIC "-//W3C//DTD SVG 1.1//EN" "http://www.w3.org/Graphics/SVG/1.1/DTD/svg11.dtd">
<svg version="1.1" id="Layer_1" xmlns="http://www.w3.org/2000/svg" xmlns:xlink="http://www.w3.org/1999/xlink" x="0px" y="0px"
	 width="72.39px" height="72.39px" viewBox="0 0 72.39 72.39" enable-background="new 0 0 72.39 72.39" xml:space="preserve">
<g>
	<g>
		<path fill="none" stroke="#020202" stroke-width="2" stroke-linecap="round" stroke-linejoin="round" stroke-miterlimit="10" d="
			M36.195,12.792v16.672V12.792z"/>
		
			<line fill="none" stroke="#020202" stroke-width="2" stroke-linecap="round" stroke-linejoin="round" stroke-miterlimit="10" x1="41.69" y1="41.023" x2="48.361" y2="46.605"/>
		<path fill="none" stroke="#8DB5D4" stroke-width="3" stroke-linecap="round" stroke-linejoin="round" stroke-miterlimit="10" d="
			M36.195,4.616c-17.441,0-31.579,14.138-31.579,31.579c0,17.44,14.138,31.579,31.579,31.579c17.44,0,31.579-14.138,31.579-31.579
			C67.774,18.754,53.635,4.616,36.195,4.616"/>
		<circle fill="#8DB5D4" cx="36.195" cy="36.258" r="2.244"/>
		<circle fill="none" stroke="#020202" stroke-width="2" stroke-miterlimit="10" cx="36.195" cy="36.258" r="6.709"/>
	</g>
	<g>
		<path fill="none" stroke="#8DB4D3" stroke-width="2" stroke-linecap="round" stroke-linejoin="round" stroke-miterlimit="10" d="
			M36.195,12.792v16.672V12.792z"/>
		
			<line fill="none" stroke="#8DB4D3" stroke-width="2" stroke-linecap="round" stroke-linejoin="round" stroke-miterlimit="10" x1="41.69" y1="41.023" x2="48.361" y2="46.605"/>
		<path fill="none" stroke="#8DB4D3" stroke-width="2" stroke-linecap="round" stroke-linejoin="round" stroke-miterlimit="10" d="
			M36.195,4.616c-17.441,0-31.579,14.138-31.579,31.579c0,17.44,14.138,31.579,31.579,31.579c17.44,0,31.579-14.138,31.579-31.579
			C67.774,18.754,53.635,4.616,36.195,4.616"/>
		
			<circle fill="none" stroke="#8DB4D3" stroke-width="2" stroke-linecap="round" stroke-linejoin="round" stroke-miterlimit="10" cx="36.195" cy="36.258" r="2.244"/>
		
			<circle fill="none" stroke="#8DB4D3" stroke-width="2" stroke-linecap="round" stroke-linejoin="round" stroke-miterlimit="10" cx="36.195" cy="36.258" r="6.709"/>
	</g>
</g>
</svg>
